<svg xmlns="http://www.w3.org/2000/svg" xmlns:xlink="http://www.w3.org/1999/xlink" width="30" height="32.811" viewBox="0 0 30 32.811"><defs><style>.a{fill:url(#a);}.b{fill:#fff;}.c{fill:url(#b);}</style><linearGradient id="a" x1="-0.025" y1="0.165" x2="0.951" y2="0.879" gradientUnits="objectBoundingBox"><stop offset="0.38" stop-color="#007dfe"/><stop offset="0.97" stop-color="#0045d1"/></linearGradient><radialGradient id="b" cx="-1.357" cy="-4.501" r="5.659" gradientTransform="translate(0.05) scale(0.901 1)" gradientUnits="objectBoundingBox"><stop offset="0.38" stop-color="#ff6295"/><stop offset="0.97" stop-color="#cb0c58"/></radialGradient></defs><g transform="translate(0.016)"><g transform="translate(-0.016 0)"><path class="a" d="M28.942,26.382a7.512,7.512,0,0,1-4.7,5.558v-.371H9.51v.569c-1.525-.208-2.71-.408-2.71-.408a8.229,8.229,0,0,1-4.835-6.5c-.507-3.876.465-14.287,1.762-16.807a7.178,7.178,0,0,1,6.058-3.6,104.287,104.287,0,0,1,13.462.534c4.7.475,6.675,2.352,6.734,7.6A104.416,104.416,0,0,1,28.942,26.382ZM4.968,4.538c.462.312.659.3.766-.416S4.722,1.068,4.722,1.068C3.6-1.044,2.888.614,2.941.993A9.954,9.954,0,0,0,4.968,4.538ZM8.572,3.2a7.45,7.45,0,0,0,.8-2.336C9.662-.625,8.065.187,8.033.534c-.069.737-.139,1.474-.195,2.811C7.819,3.8,8.145,3.641,8.572,3.2ZM2.843,6.612c.43-.045.4-.371.088-.649a18.864,18.864,0,0,0-1.8-1.159C-.546,3.9.052,5.48.255,5.683A5.4,5.4,0,0,0,2.843,6.612Z" transform="translate(0.016 0)"/><path class="b" d="M38.228,49.6c-.478-6.787-9.119-6.471-9.956-6.59-5.148-.782-5.575-6.569-5.254-9.5.361-3.341,2.222-5.873,1.062-6.919-2.389-2.157-5.7,4.805-4.4,12.854.481,2.985,3.239,7.86,3.812,10.988.069.378.135.763.2,1.157,1.062.146,2.262.294,3.361.378,1.152.043,3.528.175,5.769.27l.563.016a11.625,11.625,0,0,0,4.962-.849C38.31,50.757,38.268,50.156,38.228,49.6Z" transform="translate(-14.157 -19.458)"/><path class="c" d="M61.115,104.553c1.13.973-1.3,4.082-2.5,4.026s-2.532-2.373-2.384-3.675c.189-1.618,2.2-1.079,2.508.253C58.737,105.157,59.958,103.564,61.115,104.553Z" transform="translate(-41.234 -76.213)"/><path class="b" d="M49.739,54.7c2.572-2.138,2.578-9-2.818-7.938C40.492,48.019,44.162,59.333,49.739,54.7Z" transform="translate(-31.934 -34.243)"/></g></g></svg>