<svg xmlns="http://www.w3.org/2000/svg" width="448" height="258.75" viewBox="0 0 448 258.75">
  <g id="Group_32140" data-name="Group 32140" transform="translate(0)">
    <g id="Group_7" data-name="Group 7" transform="translate(242.679 176.009)">
      <path id="Path_149" data-name="Path 149" d="M659.739,690.406c-.065-.108-1.62-2.7-2.16-8.094-.494-4.945-.177-13.281,4.147-24.908a50.231,50.231,0,0,0-1.99-39.977l.5-.288A44.163,44.163,0,0,1,664.4,628.93a51.443,51.443,0,0,1-2.13,28.674c-8.175,21.99-2.1,32.4-2.035,32.5Z" transform="translate(-642.547 -608.663)" fill="#f2f2f2"/>
      <circle id="Ellipse_19" data-name="Ellipse 19" cx="3.735" cy="3.735" r="3.735" transform="translate(10.255)" fill="#f2f2f2"/>
      <circle id="Ellipse_20" data-name="Ellipse 20" cx="3.735" cy="3.735" r="3.735" transform="translate(22.034 13.79)" fill="#f2f2f2"/>
      <circle id="Ellipse_21" data-name="Ellipse 21" cx="3.735" cy="3.735" r="3.735" transform="translate(13.99 22.984)" fill="#f2f2f2"/>
      <circle id="Ellipse_22" data-name="Ellipse 22" cx="3.735" cy="3.735" r="3.735" transform="translate(23.758 30.741)" fill="#f2f2f2"/>
      <circle id="Ellipse_23" data-name="Ellipse 23" cx="3.735" cy="3.735" r="3.735" transform="translate(11.116 42.808)" fill="#f2f2f2"/>
      <path id="Path_150" data-name="Path 150" d="M664.837,731.334s-3.735-9.193,7.47-16.089Z" transform="translate(-645.388 -649.455)" fill="#f2f2f2"/>
      <path id="Path_151" data-name="Path 151" d="M646.828,735.6s-1.7-9.776-14.856-9.693Z" transform="translate(-631.972 -653.889)" fill="#f2f2f2"/>
    </g>
    <path id="Path_140" data-name="Path 140" d="M315.325,255.964a15.1,15.1,0,1,1,15.1-15.1,15.1,15.1,0,0,1-15.1,15.1Zm0-29.678A14.579,14.579,0,1,0,329.9,240.865a14.579,14.579,0,0,0-14.579-14.579Z" transform="translate(-251.357 -184.854)" fill="#3f3d56"/>
    <path id="Path_174" data-name="Path 174" d="M577.325,255.964a15.1,15.1,0,1,1,15.1-15.1A15.1,15.1,0,0,1,577.325,255.964Zm0-29.678A14.579,14.579,0,1,0,591.9,240.865,14.579,14.579,0,0,0,577.325,226.286Z" transform="translate(-360.294 -184.854)" fill="#3f3d56"/>
    <path id="Path_146" data-name="Path 146" d="M488.892,217.47H225.854c-5.121.009-9.27,5.135-9.277,11.462v125.4c.007,6.326,4.157,11.451,9.277,11.462H488.892c5.121-.009,9.27-5.135,9.277-11.462V228.931c-.007-6.326-4.157-11.451-9.277-11.462Zm8.187,136.867c-.006,5.583-3.667,10.107-8.186,10.113H225.854c-4.519-.007-8.179-4.531-8.186-10.113V228.931c.005-5.583,3.667-10.107,8.186-10.113H488.892c4.519.007,8.179,4.531,8.186,10.113Z" transform="translate(-216.577 -181.405)" fill="#3f3d56"/>
    <rect id="Rectangle_21" data-name="Rectangle 21" width="46.737" height="32.716" transform="translate(19.279 86.503)" fill="#f2f2f2"/>
    <rect id="Rectangle_30" data-name="Rectangle 30" width="46.737" height="32.716" transform="translate(84.711 86.503)" fill="#f2f2f2"/>
    <rect id="Rectangle_31" data-name="Rectangle 31" width="46.737" height="32.716" transform="translate(150.142 86.503)" fill="#f2f2f2"/>
    <rect id="Rectangle_32" data-name="Rectangle 32" width="46.737" height="32.716" transform="translate(215.574 86.503)" fill="#f2f2f2"/>
    <rect id="Rectangle_33" data-name="Rectangle 33" width="46.737" height="32.716" transform="translate(19.279 134.408)" fill="#f2f2f2"/>
    <rect id="Rectangle_34" data-name="Rectangle 34" width="46.737" height="32.716" transform="translate(84.711 134.408)" fill="#f2f2f2"/>
    <rect id="Rectangle_35" data-name="Rectangle 35" width="46.737" height="32.716" transform="translate(150.142 134.408)" fill="#f2f2f2"/>
    <rect id="Rectangle_36" data-name="Rectangle 36" width="46.737" height="32.716" transform="translate(215.574 134.408)" fill="#f2f2f2"/>
    <path id="Path_168" data-name="Path 168" d="M380.374,413.758l-11.033-15.237,3.005-2.176,8.445,11.663,32.317-33.2,2.658,2.588Z" transform="translate(-280.094 -246.824)" fill="#0152e8"/>
    <path id="Path_176" data-name="Path 176" d="M493.374,331.758l-11.033-15.237,3.005-2.176,8.445,11.663,32.317-33.2,2.658,2.588Z" transform="translate(-327.079 -212.729)" fill="#0152e8"/>
    <rect id="Rectangle_38" data-name="Rectangle 38" width="0.799" height="56.078" transform="translate(63.369)" fill="#2f2e41"/>
    <rect id="Rectangle_40" data-name="Rectangle 40" width="0.799" height="56.078" transform="translate(217.016)" fill="#2f2e41"/>
    <path id="Path_88" data-name="Path 88" d="M823.66,743.117H602.1a.8.8,0,1,1,0-1.6H823.66a.8.8,0,1,1,0,1.6Z" transform="translate(-376.516 -484.368)" fill="#3f3d56"/>
    <path id="Path_238" data-name="Path 238" d="M269.374,331.758l-11.033-15.237,3.005-2.176,8.445,11.663,32.317-33.2,2.658,2.588Z" transform="translate(-233.942 -212.729)" fill="#0152e8"/>
    <g id="Group_8" data-name="Group 8" transform="translate(343.549 40.91)">
      <path id="Path_200" data-name="Path 200" d="M869.735,500.692a6.15,6.15,0,0,1,.947-.2l12.794-26-3.906-5.856,8.066-7.05L897.776,474l-20.652,30.056a6.134,6.134,0,1,1-7.389-3.36Z" transform="translate(-829.896 -408.888)" fill="#ffb8b8"/>
      <path id="Path_201" data-name="Path 201" d="M893.126,456.485a2.639,2.639,0,0,1-.594.467l-13.09,7.588a2.629,2.629,0,0,1-3.593-.956q-.055-.095-.1-.194l-6.368-13.45a2.615,2.615,0,0,1,.9-3.3l8.114-5.52a2.629,2.629,0,0,1,3.341.318l11.341,11.381a2.629,2.629,0,0,1,.05,3.662Z" transform="translate(-831.448 -400.19)" fill="#ccc"/>
      <path id="Path_202" data-name="Path 202" d="M929.247,703.74l-6.911,1.881-10.542-25.764,10.2-2.776Z" transform="translate(-849.19 -498.488)" fill="#ffb8b8"/>
      <path id="Path_203" data-name="Path 203" d="M915.905,722.264l13.328-3.626,2.283,8.39-21.72,5.91a8.7,8.7,0,0,1,6.109-10.675h0Z" transform="translate(-848.232 -515.767)" fill="#2f2e41"/>
      <path id="Path_204" data-name="Path 204" d="M833.015,712.078h-7.163l-3.408-27.626h10.571Z" transform="translate(-812.039 -501.553)" fill="#ffb8b8"/>
      <path id="Path_205" data-name="Path 205" d="M813.331,728.236h13.813v8.7h-22.51a8.7,8.7,0,0,1,8.7-8.7Z" transform="translate(-804.634 -519.758)" fill="#2f2e41"/>
      <circle id="Ellipse_33" data-name="Ellipse 33" cx="14.349" cy="14.349" r="14.349" transform="translate(14.173 3.065)" fill="#ffb8b8"/>
      <path id="Path_206" data-name="Path 206" d="M829.974,619.44h-9.787a2.637,2.637,0,0,1-2.629-2.467c-2.916-46.364-1.211-79.621,5.369-104.663a2.749,2.749,0,0,1,.106-.323l.526-1.31A2.617,2.617,0,0,1,826,509.024h20.127a2.625,2.625,0,0,1,2,.918l2.734,3.19c.053.062.1.126.151.192,12.327,17.191,23.375,50.8,36.17,95.973a2.62,2.62,0,0,1-1.728,3.223l-10.516,3.366a2.643,2.643,0,0,1-3.169-1.362l-27.3-56.614a2.045,2.045,0,0,0-3.867.611l-8.022,58.646a2.639,2.639,0,0,1-2.6,2.273Z" transform="translate(-809.437 -428.612)" fill="#2f2e41"/>
      <path id="Path_207" data-name="Path 207" d="M853.911,478.636h-.082l-24.45-.773a2.62,2.62,0,0,1-2.529-2.31c-3.1-25.087,5.4-31.807,9.2-33.534a2.021,2.021,0,0,0,1.176-1.6l.329-2.629a2.62,2.62,0,0,1,.519-1.277,30.043,30.043,0,0,1,18.4-10.97,2.625,2.625,0,0,1,3.048,2.119q.012.065.02.13l.493,3.776a2.079,2.079,0,0,0,.417.988c12.42,16.236-1.416,40.209-4.316,44.85h0A2.634,2.634,0,0,1,853.911,478.636Z" transform="translate(-813.594 -393.883)" fill="#ccc"/>
      <path id="Path_239" data-name="Path 239" d="M845.2,536.36l-18.472,3.56-.7-3.643,14.139-2.725-16.434-43.321,3.469-1.315Z" transform="translate(-812.573 -420.251)" fill="#0152e8"/>
      <path id="Path_208" data-name="Path 208" d="M870.848,390.411a57.1,57.1,0,0,0-11.4-11.93,33.861,33.861,0,0,0-12.1-6.4,18.765,18.765,0,0,0-13.415,1.2c-4.057,2.156-8.252,6.441-8.278,11.035-.008,1.476.368,3.473,1.821,3.218l.421.058,10.52-2.125,4.48,15.549c.315,1.092.737,2.314,1.774,2.78a4.007,4.007,0,0,0,3.1-.387c.162-.068,1.559-3.2,1.559-3.2a.584.584,0,0,1,1.007-.168l.83,1.037a1.168,1.168,0,0,0,1.362.351l17.156-7.162c.79-.33,1.674-.759,1.9-1.586A2.849,2.849,0,0,0,870.848,390.411Z" transform="translate(-813.377 -371.381)" fill="#2f2e41"/>
      <path id="Path_211" data-name="Path 211" d="M862.645,531.635a6.276,6.276,0,0,0,.821-9.588l4.541-54.84-13.521,1.86-.257,53.28a6.309,6.309,0,0,0,8.413,9.289Z" transform="translate(-824.608 -411.225)" fill="#ffb8b8"/>
      <path id="Path_212" data-name="Path 212" d="M868.227,464.064a2.639,2.639,0,0,1-.748-.108l-14.515-4.269a2.629,2.629,0,0,1-1.78-3.264q.031-.1.07-.207l5.372-13.877a2.615,2.615,0,0,1,3.01-1.619l9.59,2.084a2.629,2.629,0,0,1,2.069,2.641l-.446,16.061a2.629,2.629,0,0,1-2.622,2.558Z" transform="translate(-823.944 -400.185)" fill="#ccc"/>
    </g>
  </g>
</svg>
