<svg width="30" height="30" viewBox="0 0 30 30" fill="none" xmlns="http://www.w3.org/2000/svg">
<g clip-path="url(#clip0_531_8900)">
<path d="M20.625 24.375C21.6605 24.375 22.5 23.5355 22.5 22.5C22.5 21.4645 21.6605 20.625 20.625 20.625C19.5895 20.625 18.75 21.4645 18.75 22.5C18.75 23.5355 19.5895 24.375 20.625 24.375Z" fill="#0152E8"/>
<path d="M27.9158 22.0111C27.3365 20.5355 26.3369 19.2623 25.0409 18.3493C23.7449 17.4363 22.2095 16.9237 20.625 16.875C19.0405 16.9237 17.5051 17.4363 16.2091 18.3493C14.9131 19.2623 13.9135 20.5355 13.3342 22.0111L13.125 22.5L13.3342 22.9889C13.9135 24.4645 14.9131 25.7377 16.2091 26.6507C17.5051 27.5637 19.0405 28.0763 20.625 28.125C22.2095 28.0763 23.7449 27.5637 25.0409 26.6507C26.3369 25.7377 27.3365 24.4645 27.9158 22.9889L28.125 22.5L27.9158 22.0111ZM20.625 26.25C19.8833 26.25 19.1583 26.0301 18.5416 25.618C17.9249 25.206 17.4443 24.6203 17.1605 23.9351C16.8766 23.2498 16.8024 22.4958 16.9471 21.7684C17.0917 21.041 17.4489 20.3728 17.9734 19.8484C18.4978 19.3239 19.166 18.9667 19.8934 18.8221C20.6208 18.6774 21.3748 18.7516 22.0601 19.0355C22.7453 19.3193 23.331 19.7999 23.743 20.4166C24.1551 21.0333 24.375 21.7583 24.375 22.5C24.3739 23.4942 23.9784 24.4474 23.2754 25.1504C22.5724 25.8534 21.6192 26.2489 20.625 26.25V26.25Z" fill="#0152E8"/>
<path d="M11.25 26.2498H7.5V3.74983H15V9.37483C15.0014 9.87167 15.1994 10.3478 15.5508 10.6991C15.9021 11.0504 16.3782 11.2484 16.875 11.2498H22.5V14.9998H24.375V9.37483C24.3784 9.25162 24.355 9.12914 24.3064 9.01584C24.2578 8.90255 24.1853 8.80113 24.0938 8.71858L17.5313 2.15608C17.4487 2.06452 17.3473 1.99195 17.234 1.94339C17.1207 1.89484 16.9982 1.87144 16.875 1.87483H7.5C7.00316 1.87627 6.52708 2.07427 6.17576 2.42559C5.82444 2.77691 5.62643 3.25299 5.625 3.74983V26.2498C5.62643 26.7467 5.82444 27.2228 6.17576 27.5741C6.52708 27.9254 7.00316 28.1234 7.5 28.1248H11.25V26.2498ZM16.875 4.12483L22.125 9.37483H16.875V4.12483Z" fill="#0152E8"/>
</g>
<defs>
<clipPath id="clip0_531_8900">
<rect width="30" height="30" fill="white"/>
</clipPath>
</defs>
</svg>
