<svg width="30" height="30" viewBox="0 0 30 30" fill="none" xmlns="http://www.w3.org/2000/svg">
<path fill-rule="evenodd" clip-rule="evenodd" d="M28.125 6.56232H23.3437C22.9001 4.37764 20.9793 2.80762 18.75 2.80762C16.5207 2.80762 14.5999 4.37764 14.1563 6.56232H1.875V8.43732H14.1563C14.5999 10.622 16.5207 12.192 18.75 12.192C20.9793 12.192 22.9001 10.622 23.3437 8.43732H28.125V6.56232ZM18.75 10.3123C17.1967 10.3123 15.9375 9.05312 15.9375 7.49982C15.9375 5.94652 17.1967 4.68732 18.75 4.68732C20.3033 4.68732 21.5625 5.94652 21.5625 7.49982C21.5625 9.05312 20.3033 10.3123 18.75 10.3123ZM1.875 23.4373H6.65625C7.09987 25.622 9.02074 27.192 11.25 27.192C13.4793 27.192 15.4001 25.622 15.8437 23.4373H28.125V21.5623H15.8437C15.4001 19.3776 13.4793 17.8076 11.25 17.8076C9.02074 17.8076 7.09987 19.3776 6.65625 21.5623H1.875V23.4373ZM8.4375 22.4998C8.4375 20.9465 9.6967 19.6873 11.25 19.6873C12.8033 19.6873 14.0625 20.9465 14.0625 22.4998C14.0625 24.0531 12.8033 25.3123 11.25 25.3123C9.6967 25.3123 8.4375 24.0531 8.4375 22.4998Z" fill="#0152E8"/>
</svg>
