<svg width="30" height="30" viewBox="0 0 30 30" fill="none" xmlns="http://www.w3.org/2000/svg">
<path fill-rule="evenodd" clip-rule="evenodd" d="M19.3031 20.625L14.0625 15.3844V6.5625H15.9375V14.6062L20.625 19.3031L19.3031 20.625ZM15 1.875C11.4675 1.8755 8.08561 3.30603 5.625 5.84063V1.875H3.75V9.375H11.25V7.5H6.6375C10.2666 3.46727 16.2568 2.59898 20.8815 5.43529C25.5062 8.2716 27.448 14.0045 25.4988 19.0674C23.5495 24.1304 18.2646 27.081 12.9319 26.0837C7.59911 25.0863 3.73775 20.4252 3.75 15H1.875C1.875 22.2487 7.75126 28.125 15 28.125C22.2487 28.125 28.125 22.2487 28.125 15C28.125 7.75126 22.2487 1.875 15 1.875Z" fill="#0152E8"/>
</svg>
